<svg width="34" height="34" fill="none" xmlns="http://www.w3.org/2000/svg"><g clip-path="url(#clip0)" fill="#A4341C"><path d="M33.967 10.202c-.08-1.753-.372-2.959-.79-4.003a8.035 8.035 0 00-1.967-2.927 8.398 8.398 0 00-3.009-1.902C27.12.964 25.884.68 24.078.603 22.257.52 21.679.5 17.063.5s-5.194.02-7.007.097c-1.807.077-3.049.36-4.125.767a8.324 8.324 0 00-3.015 1.908 8.106 8.106 0 00-1.96 2.92c-.418 1.051-.71 2.25-.79 4.003C.08 11.962.06 12.523.06 17.003s.02 5.041.1 6.801c.079 1.754.371 2.96.79 4.004a8.12 8.12 0 001.966 2.926c.85.838 1.88 1.49 3.009 1.902 1.082.406 2.318.69 4.124.767 1.813.078 2.391.097 7.008.097 4.616 0 5.194-.02 7.007-.097 1.806-.077 3.048-.36 4.124-.767 2.285-.857 4.092-2.61 4.975-4.828.419-1.051.71-2.25.79-4.004.08-1.76.1-2.32.1-6.8 0-4.481-.007-5.042-.086-6.802zm-3.062 13.473c-.073 1.612-.352 2.482-.585 3.063a5.56 5.56 0 01-3.228 3.133c-.597.225-1.5.496-3.154.567-1.794.077-2.332.097-6.868.097-4.537 0-5.081-.02-6.868-.097-1.66-.071-2.557-.342-3.155-.567a5.25 5.25 0 01-1.953-1.232 5.118 5.118 0 01-1.268-1.895c-.233-.58-.512-1.457-.585-3.062-.08-1.74-.1-2.263-.1-6.666 0-4.403.02-4.932.1-6.666.073-1.611.352-2.482.585-3.062A5.005 5.005 0 015.1 5.393a5.296 5.296 0 011.953-1.231c.598-.226 1.5-.497 3.155-.568 1.793-.077 2.331-.096 6.867-.096 4.543 0 5.081.019 6.868.096 1.66.071 2.557.342 3.155.568a5.246 5.246 0 011.953 1.23c.564.536.996 1.18 1.268 1.896.233.58.512 1.457.585 3.062.08 1.741.1 2.263.1 6.666 0 4.403-.02 4.919-.1 6.66z"/><path d="M17.063 8.526c-4.822 0-8.734 3.797-8.734 8.477s3.912 8.477 8.734 8.477 8.734-3.796 8.734-8.477c0-4.68-3.912-8.477-8.734-8.477zm0 13.976c-3.128 0-5.666-2.462-5.666-5.499 0-3.036 2.538-5.499 5.666-5.499 3.129 0 5.666 2.463 5.666 5.5 0 3.036-2.537 5.498-5.666 5.498zM28.182 8.19c0 1.094-.913 1.98-2.04 1.98-1.125 0-2.038-.886-2.038-1.98 0-1.092.913-1.978 2.038-1.978 1.127 0 2.04.886 2.04 1.979z"/></g><defs><clipPath id="clip0"><path fill="#fff" transform="translate(0 .5)" d="M0 0h34v33H0z"/></clipPath></defs></svg>