<svg width="120" height="49" fill="none" xmlns="http://www.w3.org/2000/svg"><g clip-path="url(#clip0)"><path d="M22.675 20.941h-4.427v-9.043h-8.39v9.043H5.413V0H9.86v8.203h8.36V0h4.456v20.941zM37.946 20.941l-.848-2.18h-.118a6.532 6.532 0 01-2.287 1.956 7.42 7.42 0 01-3.066.537 4.966 4.966 0 01-3.668-1.32 5.065 5.065 0 01-1.063-1.754 5.033 5.033 0 01-.277-2.03 4.203 4.203 0 01.4-2.11 4.242 4.242 0 011.394-1.643 10.47 10.47 0 015.422-1.34l2.8-.088v-.704a2.162 2.162 0 00-.637-1.841 2.202 2.202 0 00-1.867-.603 11.582 11.582 0 00-4.555 1.173l-1.459-2.933a13.291 13.291 0 016.191-1.466 7.707 7.707 0 014.979 1.408 5.153 5.153 0 011.373 1.929c.302.74.425 1.538.362 2.333v10.676h-3.076zm-1.301-7.42l-1.706.059a5.538 5.538 0 00-2.859.684c-.315.215-.568.51-.733.853a2.145 2.145 0 00-.203 1.102c0 1.232.71 1.848 2.139 1.848a3.428 3.428 0 002.445-.87 3.077 3.077 0 00.917-2.317V13.52zM60.463 20.941h-4.407v-9.356a4.467 4.467 0 00-.62-2.6 2.274 2.274 0 00-1.972-.86 2.98 2.98 0 00-1.5.257 2.952 2.952 0 00-1.172.964 7.591 7.591 0 00-.818 4.058v7.537h-4.417V4.888h3.362l.591 2.044h.247a4.643 4.643 0 012.03-1.75 6.951 6.951 0 012.958-.597 5.703 5.703 0 012.3.313c.736.261 1.41.67 1.979 1.203a6.048 6.048 0 011.46 4.36l-.02 10.48zM71.8 17.744a9.63 9.63 0 002.771-.498v3.285a9.931 9.931 0 01-4.042.733 4.969 4.969 0 01-2.073-.25 4.939 4.939 0 01-1.782-1.08 5.735 5.735 0 01-1.202-3.969V8.203h-2.11V6.355l2.425-1.467 1.252-3.373h2.82v3.373h4.515v3.315h-4.496v7.723a1.738 1.738 0 00.523 1.379c.398.308.895.464 1.4.44zM85.14 21.225a8.434 8.434 0 01-3.262-.46 8.384 8.384 0 01-2.831-1.671 8.104 8.104 0 01-1.703-2.807 8.052 8.052 0 01-.446-3.245 8.847 8.847 0 011.972-6.198 7.22 7.22 0 012.563-1.722 7.271 7.271 0 013.056-.498 7.163 7.163 0 012.873.426 7.116 7.116 0 012.46 1.53 7.299 7.299 0 011.469 2.474c.32.913.454 1.88.395 2.844v2.122H81.314a4.193 4.193 0 001.115 2.933 3.913 3.913 0 002.958 1.046c.927.004 1.853-.094 2.76-.294a14.463 14.463 0 002.71-.977v3.382a10.41 10.41 0 01-2.474.85c-1.069.202-2.156.29-3.243.265zm-.621-13.492a2.801 2.801 0 00-2.19.88 4.046 4.046 0 00-.916 2.503h6.181a3.657 3.657 0 00-.837-2.503 2.9 2.9 0 00-2.238-.88zM104.325 4.624a7.68 7.68 0 011.478.127l-.315 4.097a5.469 5.469 0 00-1.301-.137 4.679 4.679 0 00-3.293 1.065c-.402.39-.716.86-.92 1.38a3.881 3.881 0 00-.263 1.632v8.153h-4.407V4.888h3.342l.65 2.689h.218a6.153 6.153 0 012.031-2.132 5.016 5.016 0 012.78-.82zM120 16.18a4.387 4.387 0 01-1.696 3.754 8.543 8.543 0 01-5.156 1.29 16.416 16.416 0 01-2.957-.234 11.465 11.465 0 01-2.327-.694V16.69c.891.41 1.818.736 2.77.977a11.4 11.4 0 002.702.381c1.597 0 2.395-.459 2.395-1.368a1.11 1.11 0 00-.315-.841 4.45 4.45 0 00-1.095-.733c-.522-.274-1.212-.587-2.08-.978-.99-.359-1.934-.835-2.809-1.418a3.913 3.913 0 01-1.262-1.505 4.947 4.947 0 01-.405-2.102 3.8 3.8 0 011.667-3.304 8.155 8.155 0 014.732-1.174c1.958 0 3.892.424 5.668 1.242l-1.33 3.168a23.881 23.881 0 00-2.268-.841 6.95 6.95 0 00-2.149-.372c-1.302 0-1.972.352-1.972 1.046a1.215 1.215 0 00.631.978c.877.507 1.797.936 2.751 1.28.997.378 1.941.88 2.809 1.496.555.39 1.003.91 1.302 1.516.284.643.419 1.341.394 2.043z" fill="#C6D32E"/><path d="M15.074 33.817c.06.965-.1 1.932-.468 2.828a6.425 6.425 0 01-1.662 2.344 9.144 9.144 0 01-6.043 1.789H4.93v7.44H.493V27.286h6.743a9.095 9.095 0 015.846 1.633 5.993 5.993 0 011.57 2.22c.345.849.49 1.765.422 2.678zM4.929 37.151h1.48a4.96 4.96 0 003.085-.812 2.825 2.825 0 00.986-2.356 2.911 2.911 0 00-.858-2.307 4.037 4.037 0 00-2.691-.743H4.929v6.218zM22.231 48.218h-3.5V25.106h3.51l-.01 23.112zM37.995 48.218l-.847-2.17h-.119a6.64 6.64 0 01-2.287 1.955 7.55 7.55 0 01-3.066.538 4.97 4.97 0 01-1.971-.285 4.938 4.938 0 01-1.696-1.035 5.033 5.033 0 01-1.33-3.754c-.001-1.702-.613-27.472.423-29.702 1.035-2.229 4.377-2.659 6.792-2.737l2.8-.088v-.704a2.164 2.164 0 00-.653-1.825 2.201 2.201 0 00-1.86-.59c-1.581.07-3.13.466-4.546 1.164l-1.459-2.933a13.202 13.202 0 016.182-1.447 7.766 7.766 0 014.929 1.398 5.182 5.182 0 011.373 1.934c.3.741.425 1.542.362 2.338v37.943h-3.027zm-1.3-34.853l-1.697.058c-1.281 0-3.49.597-3.657 2.22-.168 1.622-.148 26.963-.148 27.824a1.698 1.698 0 00.581 1.48 1.73 1.73 0 001.558.367c1.41-.146 2.05-.137 2.445-.87.7-1.29.917-28.802.917-29.78v-1.3zM60.513 48.511h-4.407V11.497a4.467 4.467 0 00-.621-2.6 2.284 2.284 0 00-1.972-.87 2.98 2.98 0 00-1.502.262c-.468.216-.872.55-1.17.97a7.572 7.572 0 00-.818 4.057V48.51h-4.417V4.888h3.362l.601 1.956h.237a4.643 4.643 0 012.031-1.75 6.95 6.95 0 012.958-.597 5.693 5.693 0 012.292.33c.733.266 1.403.68 1.967 1.215a6.02 6.02 0 011.459 4.36v38.11zM71.85 45.03a9.367 9.367 0 002.77-.508v3.256a9.932 9.932 0 01-4.042.733 4.967 4.967 0 01-3.854-1.33 5.754 5.754 0 01-1.203-3.969l.108-34.824h-2.11V6.541l2.426-1.457L67.217 1.7h2.78v3.412h4.515v3.275h-4.515l-.07 34.824a1.697 1.697 0 00.523 1.37c.395.315.894.475 1.4.449v0zM89.152 43.467a4.397 4.397 0 01-.395 2.088 4.435 4.435 0 01-1.33 1.666 8.603 8.603 0 01-5.166 1.29c-.991.01-1.981-.068-2.958-.234a11.696 11.696 0 01-2.405-.704v-3.579c.89.414 1.817.742 2.77.978a10.93 10.93 0 002.711.391c1.597 0 2.396-.46 2.396-1.378a1.143 1.143 0 00-.316-.831 4.765 4.765 0 00-1.104-.734c-.522-.273-1.212-.586-2.08-.977a13.061 13.061 0 01-2.701-1.457 4.065 4.065 0 01-1.272-1.505 4.97 4.97 0 01-.404-2.102 3.787 3.787 0 01.407-1.868 3.822 3.822 0 011.269-1.437 8.188 8.188 0 014.722-1.163c1.963.002 3.902.433 5.679 1.26l-1.331 3.149c-.74-.32-1.497-.6-2.268-.84a6.955 6.955 0 00-2.149-.284c-1.301 0-1.972.352-1.972 1.046a1.235 1.235 0 00.631.977c.877.505 1.797.93 2.75 1.271.98.358 1.91.834 2.771 1.418.56.39 1.013.91 1.321 1.515.3.64.445 1.339.424 2.044v0z" stroke="#A4341C" stroke-width="2" stroke-miterlimit="10"/></g><defs><clipPath id="clip0"><path fill="#fff" d="M0 0h120v49H0z"/></clipPath></defs></svg>